# Blender v2.78 (sub 0) OBJ File: '14.blend'
# www.blender.org
mtllib Glass_of_Champagne_01.mtl
g Glass_of_Champagne_Circle.008
v 0.000000 0.000000 -1.353126
v -0.956804 0.000000 -0.956804
v -1.353126 0.000000 0.000000
v -0.956804 0.000000 0.956804
v 0.000000 0.000000 1.353126
v 0.956804 0.000000 0.956804
v 1.353126 0.000000 -0.000000
v 0.956804 0.000000 -0.956804
v 0.000000 0.158432 -1.279643
v -0.904844 0.158432 -0.904844
v -1.279643 0.158432 0.000000
v -0.904844 0.158432 0.904844
v 0.000000 0.158432 1.279643
v 0.904844 0.158432 0.904844
v 1.279643 0.158432 -0.000000
v 0.904844 0.158432 -0.904844
v 0.000000 0.200938 -0.116560
v -0.082420 0.200938 -0.082420
v -0.116560 0.200938 0.000000
v -0.082420 0.200938 0.082420
v 0.000000 0.200938 0.116560
v 0.082420 0.200938 0.082420
v 0.116560 0.200938 0.000000
v 0.082420 0.200938 -0.082420
v 0.000000 4.749794 -0.116560
v -0.082420 4.749794 -0.082420
v -0.116560 4.749794 0.000000
v -0.082420 4.749794 0.082420
v 0.000000 4.749794 0.116560
v 0.082420 4.749794 0.082420
v 0.116560 4.749794 0.000000
v 0.082420 4.749794 -0.082420
v 0.000000 5.472424 -0.616784
v -0.436132 5.472424 -0.436133
v -0.616784 5.472424 0.000000
v -0.436132 5.472424 0.436132
v 0.000000 5.472424 0.616784
v 0.436132 5.472424 0.436132
v 0.616784 5.472424 -0.000000
v 0.436132 5.472424 -0.436132
v 0.000000 6.169245 -0.925935
v -0.654735 6.169245 -0.654735
v -0.925936 6.169245 0.000000
v -0.654735 6.169245 0.654735
v 0.000000 6.169245 0.925935
v 0.654735 6.169245 0.654735
v 0.925935 6.169245 -0.000000
v 0.654735 6.169245 -0.654735
v 0.000000 7.214479 -1.026159
v -0.725604 7.214479 -0.725605
v -1.026160 7.214479 0.000000
v -0.725604 7.214479 0.725605
v 0.000000 7.214479 1.026159
v 0.725604 7.214479 0.725605
v 1.026160 7.214479 -0.000000
v 0.725604 7.214479 -0.725604
v 0.000000 8.853302 -0.929613
v -0.657336 8.853302 -0.657336
v -0.929613 8.853302 0.000000
v -0.657336 8.853302 0.657336
v 0.000000 8.853302 0.929613
v 0.657336 8.853302 0.657336
v 0.929613 8.853302 -0.000000
v 0.657336 8.853302 -0.657336
v 0.000000 9.941907 -0.833632
v -0.589467 9.941907 -0.589468
v -0.833633 9.941907 0.000000
v -0.589467 9.941907 0.589467
v 0.000000 9.941907 0.833632
v 0.589467 9.941907 0.589467
v 0.833633 9.941907 -0.000000
v 0.589467 9.941907 -0.589467
v 0.000000 9.941907 -0.743266
v -0.525568 9.941907 -0.525569
v -0.743266 9.941907 0.000000
v -0.525568 9.941907 0.525569
v 0.000000 9.941907 0.743266
v 0.525568 9.941907 0.525569
v 0.743266 9.941907 -0.000000
v 0.525568 9.941907 -0.525568
v 0.000000 8.857603 -0.859717
v -0.607912 8.857603 -0.607912
v -0.859717 8.857603 0.000000
v -0.607912 8.857603 0.607912
v 0.000000 8.857603 0.859717
v 0.607912 8.857603 0.607912
v 0.859717 8.857603 -0.000000
v 0.607912 8.857603 -0.607912
v 0.000000 7.226666 -0.938985
v -0.663962 7.226666 -0.663963
v -0.938985 7.226666 0.000000
v -0.663962 7.226666 0.663962
v 0.000000 7.226666 0.938984
v 0.663962 7.226666 0.663962
v 0.938985 7.226666 -0.000000
v 0.663962 7.226666 -0.663962
v 0.000000 7.226667 0.000000
vn -0.8492 0.3939 -0.3517
vn 0.8492 0.3939 -0.3517
vn 0.3517 0.3939 0.8492
vn -0.8492 0.3939 0.3517
vn -0.3517 0.3939 -0.8492
vn 0.3517 0.3939 -0.8492
vn 0.8492 0.3939 0.3517
vn -0.3517 0.3939 0.8492
vn 0.0151 0.9992 0.0365
vn -0.0365 0.9992 0.0151
vn -0.0151 0.9992 -0.0365
vn 0.0151 0.9992 -0.0365
vn 0.0365 0.9992 0.0151
vn -0.0151 0.9992 0.0365
vn -0.0365 0.9992 -0.0151
vn 0.0365 0.9992 -0.0151
vn 0.9239 0.0000 -0.3827
vn 0.3827 0.0000 0.9239
vn -0.9239 0.0000 0.3827
vn -0.3827 0.0000 -0.9239
vn 0.3827 0.0000 -0.9239
vn 0.9239 0.0000 0.3827
vn -0.3827 0.0000 0.9239
vn -0.9239 0.0000 -0.3827
vn -0.9225 0.0543 -0.3821
vn 0.9225 0.0543 -0.3821
vn 0.3821 0.0543 0.9225
vn -0.9225 0.0543 0.3821
vn -0.3821 0.0543 -0.9225
vn 0.3821 0.0543 -0.9225
vn 0.9225 0.0543 0.3821
vn -0.3821 0.0543 0.9225
vn 0.3814 0.0812 -0.9208
vn 0.9208 0.0812 0.3814
vn -0.3814 0.0812 0.9208
vn -0.9208 0.0812 -0.3814
vn 0.9208 0.0812 -0.3814
vn 0.3814 0.0812 0.9208
vn -0.9208 0.0812 0.3814
vn -0.3814 0.0812 -0.9208
vn 0.0000 1.0000 -0.0000
vn -0.9194 -0.0987 0.3808
vn -0.3808 -0.0987 -0.9194
vn 0.9194 -0.0987 -0.3808
vn 0.3808 -0.0987 0.9194
vn -0.3808 -0.0987 0.9194
vn -0.9194 -0.0987 -0.3808
vn 0.3808 -0.0987 -0.9194
vn 0.9194 -0.0987 0.3808
vn 0.3823 -0.0449 -0.9229
vn 0.9229 -0.0449 0.3823
vn -0.9229 -0.0449 0.3823
vn -0.3823 -0.0449 -0.9229
vn 0.9229 -0.0449 -0.3823
vn 0.3823 -0.0449 0.9229
vn -0.3823 -0.0449 0.9229
vn -0.9229 -0.0449 -0.3823
vn 0.7783 -0.5388 0.3224
vn -0.3224 -0.5388 0.7783
vn -0.7783 -0.5388 -0.3224
vn 0.7783 -0.5388 -0.3224
vn 0.3224 -0.5388 0.7783
vn -0.7783 -0.5388 0.3224
vn -0.3224 -0.5388 -0.7783
vn 0.3224 -0.5388 -0.7783
vn -0.3541 -0.3793 -0.8549
vn 0.3541 -0.3793 -0.8549
vn 0.8549 -0.3793 0.3541
vn -0.3541 -0.3793 0.8549
vn -0.8549 -0.3793 -0.3541
vn 0.8549 -0.3793 -0.3541
vn 0.3541 -0.3793 0.8549
vn -0.8549 -0.3793 0.3541
vn 0.9203 -0.0882 -0.3812
vn 0.3812 -0.0882 0.9203
vn -0.9203 -0.0882 0.3812
vn -0.3812 -0.0882 -0.9203
vn 0.3812 -0.0882 -0.9203
vn 0.9203 -0.0882 0.3812
vn -0.3812 -0.0882 0.9203
vn -0.9203 -0.0882 -0.3812
usemtl FFFFFF
s off
f 3//1 11//1 10//1 2//1
f 8//2 16//2 15//2 7//2
f 6//3 14//3 13//3 5//3
f 4//4 12//4 11//4 3//4
f 2//5 10//5 9//5 1//5
f 1//6 9//6 16//6 8//6
f 7//7 15//7 14//7 6//7
f 5//8 13//8 12//8 4//8
f 14//9 22//9 21//9 13//9
f 12//10 20//10 19//10 11//10
f 10//11 18//11 17//11 9//11
f 9//12 17//12 24//12 16//12
f 15//13 23//13 22//13 14//13
f 13//14 21//14 20//14 12//14
f 11//15 19//15 18//15 10//15
f 16//16 24//16 23//16 15//16
f 24//17 32//17 31//17 23//17
f 22//18 30//18 29//18 21//18
f 20//19 28//19 27//19 19//19
f 18//20 26//20 25//20 17//20
f 17//21 25//21 32//21 24//21
f 23//22 31//22 30//22 22//22
f 21//23 29//23 28//23 20//23
f 19//24 27//24 26//24 18//24
f 51//25 59//25 58//25 50//25
f 56//26 64//26 63//26 55//26
f 54//27 62//27 61//27 53//27
f 52//28 60//28 59//28 51//28
f 50//29 58//29 57//29 49//29
f 49//30 57//30 64//30 56//30
f 55//31 63//31 62//31 54//31
f 53//32 61//32 60//32 52//32
f 57//33 65//33 72//33 64//33
f 63//34 71//34 70//34 62//34
f 61//35 69//35 68//35 60//35
f 59//36 67//36 66//36 58//36
f 64//37 72//37 71//37 63//37
f 62//38 70//38 69//38 61//38
f 60//39 68//39 67//39 59//39
f 58//40 66//40 65//40 57//40
f 68//41 76//41 75//41 67//41
f 66//41 74//41 73//41 65//41
f 65//41 73//41 80//41 72//41
f 71//41 79//41 78//41 70//41
f 69//41 77//41 76//41 68//41
f 67//41 75//41 74//41 66//41
f 72//41 80//41 79//41 71//41
f 70//41 78//41 77//41 69//41
f 80//42 88//42 87//42 79//42
f 78//43 86//43 85//43 77//43
f 76//44 84//44 83//44 75//44
f 74//45 82//45 81//45 73//45
f 73//46 81//46 88//46 80//46
f 79//47 87//47 86//47 78//47
f 77//48 85//48 84//48 76//48
f 75//49 83//49 82//49 74//49
f 85//50 93//50 92//50 84//50
f 83//51 91//51 90//51 82//51
f 88//52 96//52 95//52 87//52
f 86//53 94//53 93//53 85//53
f 84//54 92//54 91//54 83//54
f 82//55 90//55 89//55 81//55
f 81//56 89//56 96//56 88//56
f 87//57 95//57 94//57 86//57
usemtl DD9944
f 31//58 39//58 38//58 30//58
f 29//59 37//59 36//59 28//59
f 27//60 35//60 34//60 26//60
f 32//61 40//61 39//61 31//61
f 30//62 38//62 37//62 29//62
f 28//63 36//63 35//63 27//63
f 26//64 34//64 33//64 25//64
f 25//65 33//65 40//65 32//65
f 34//66 42//66 41//66 33//66
f 33//67 41//67 48//67 40//67
f 39//68 47//68 46//68 38//68
f 37//69 45//69 44//69 36//69
f 35//70 43//70 42//70 34//70
f 40//71 48//71 47//71 39//71
f 38//72 46//72 45//72 37//72
f 36//73 44//73 43//73 35//73
f 48//74 56//74 55//74 47//74
f 46//75 54//75 53//75 45//75
f 44//76 52//76 51//76 43//76
f 42//77 50//77 49//77 41//77
f 41//78 49//78 56//78 48//78
f 47//79 55//79 54//79 46//79
f 45//80 53//80 52//80 44//80
f 43//81 51//81 50//81 42//81
f 89//41 97//41 96//41
f 95//41 97//41 94//41
f 93//41 97//41 92//41
f 91//41 97//41 90//41
f 96//41 97//41 95//41
f 94//41 97//41 93//41
f 92//41 97//41 91//41
f 90//41 97//41 89//41
