# 3ds Max Wavefront OBJ Exporter v0.97b - (c)2007 guruware
# File Created: 07.09.2017 12:55:44

mtllib Trident.mtl

#
# object Box001
#

v  -592318.5625 -397336.7500 330273.8125
v  -87180.4375 -397336.7500 419343.3125
v  -91799.5625 -397336.7500 445539.5313
v  -596937.6875 -397336.7500 356470.0313
v  -592318.5625 -377385.8125 330273.8125
v  -596937.6875 -377385.8125 356470.0313
v  -91799.5625 -377385.8125 445539.5313
v  -87180.4375 -377385.8125 419343.3125
v  -816668.4375 -397336.0313 304056.4375
v  -816724.4375 -397336.0313 304374.1250
v  -816724.4375 -377386.5313 304374.1250
v  -816668.4375 -377386.5313 304056.4375
v  -621238.2500 -397336.7500 325174.5000
v  -625857.3750 -397336.7500 351370.7188
v  -754252.3750 -397336.7500 328731.2188
v  -749633.2500 -397336.7500 302534.9688
v  -625857.3750 -377385.8125 351370.7188
v  -754252.3750 -377385.8125 328731.2188
v  -621238.2500 -377385.8125 325174.5000
v  -749633.2500 -377385.8125 302534.9688
v  -757313.6875 -397336.0313 346092.7500
v  -746572.0000 -397336.0313 285173.4375
v  -757313.6875 -377386.5313 346092.7500
v  -746572.0000 -377386.5313 285173.4375
v  -814988.8750 -377813.7188 437542.1875
v  -815278.2500 -377813.7188 436184.8438
v  -815278.2500 -396540.0938 436184.8438
v  -814988.8750 -396540.1250 437542.1875
v  -778796.7500 -377386.5313 185791.1875
v  -778737.0000 -377386.5313 185696.9844
v  -778737.0000 -397336.0313 185696.9844
v  -778796.7500 -397336.0313 185791.1875
v  -615172.0625 -377385.8125 291919.7500
v  -615172.0625 -397336.7500 291919.7500
v  -586236.7500 -377385.8125 296907.9375
v  -586236.7500 -397336.7500 296907.9375
v  -629919.4375 -377385.8125 264650.5625
v  -629919.4375 -397336.7500 264650.5625
v  -596340.6250 -377385.8125 255708.0625
v  -596340.6250 -397336.7500 255708.0625
v  -729926.5000 -377385.8125 225406.2969
v  -729926.5000 -397336.7500 225406.2969
v  -715655.9375 -377385.8125 202913.1875
v  -715655.9375 -397336.7500 202913.1875
v  -740119.8125 -377386.5313 241473.0313
v  -740119.8125 -397336.0313 241473.0313
v  -705462.6250 -377386.5313 186846.4688
v  -705462.6250 -397336.0313 186846.4688
v  -630237.3750 -397336.7500 380246.3750
v  -630237.3750 -377385.8125 380246.3750
v  -604639.0625 -397336.7500 393741.5000
v  -604639.0625 -377385.8125 393741.5000
v  -647821.9375 -397336.7500 396710.4375
v  -647821.9375 -377385.8125 396710.4375
v  -627330.3750 -397336.7500 425296.1875
v  -627330.3750 -377385.8125 425296.1875
v  -754562.5000 -377813.7188 454746.0000
v  -754562.5000 -396540.0938 454746.0000
v  -764201.6250 -378184.8750 409530.4375
v  -764201.6250 -396537.7188 409530.4375
v  -767890.6250 -377813.7188 392225.7500
v  -758251.5000 -396537.7188 437441.2813
v  -767890.6250 -396540.0938 392225.7500
v  -758251.5000 -378184.8750 437441.2813
# 64 vertices

vn 0.0000 -1.0000 -0.0000
vn 0.0000 1.0000 -0.0000
vn -0.9848 0.0000 -0.1736
vn -0.1736 0.0000 0.9848
vn 0.9848 0.0000 0.1736
vn 0.1736 0.0000 -0.9848
vn -0.5747 0.0000 0.8184
vn -0.2601 0.0000 -0.9656
vn -0.9780 0.0000 0.2085
vn -0.8443 0.0000 -0.5359
vn -0.9838 0.0000 -0.1795
vn 0.9838 0.0000 0.1793
vn -0.8796 0.0000 0.4757
vn 0.9712 0.0000 -0.2382
vn -0.3653 0.0000 0.9309
vn 0.4046 0.0000 -0.9145
vn 0.8444 0.0000 0.5357
vn -0.8442 0.0231 -0.5356
vn -0.8442 -0.0231 -0.5356
vn -0.8213 0.0000 0.5705
vn 0.0157 0.0000 -0.9999
vn -0.9887 0.0000 -0.1500
vn 0.9793 0.0000 0.2024
vn -0.6835 0.0000 -0.7300
vn 0.8119 0.0000 0.5838
vn 0.9780 0.0000 -0.2085
vn 0.9780 -0.0000 -0.2085
vn -0.2738 0.0000 0.9618
vn 0.0000 1.0000 0.0000
vn -0.6801 -0.0000 -0.7331
vn -0.1095 0.0000 -0.9940
vn -0.0052 -1.0000 0.0024
vn 0.0924 0.0000 0.9957
vn -0.0052 1.0000 0.0024
# 34 vertex normals

vt 1.0000 0.0271 0.0000
vt 1.0000 1.0000 0.0000
vt 0.0000 1.0000 0.0000
vt 0.0000 0.0271 0.0000
vt 0.0000 0.0000 0.0000
vt 1.0000 0.0000 0.0000
vt 0.0271 0.0000 0.0000
vt 0.0271 1.0000 0.0000
vt 0.9729 0.0000 0.0000
vt 0.9729 1.0000 0.0000
vt 1.0000 -2.7341 0.0000
vt 0.0000 -2.7341 0.0000
vt -4.4323 -0.0000 0.0000
vt -4.4323 1.0000 0.0000
vt 5.4323 1.0000 0.0000
vt 5.4323 0.0000 0.0000
# 16 texture coords

g Box001
usemtl _crayfishdiffuse
s 1
f -64/-16/-34 -63/-15/-34 -62/-14/-34 -61/-13/-34 
f -60/-13/-33 -59/-16/-33 -58/-15/-33 -57/-14/-33 
f -56/-12/-32 -55/-11/-32 -54/-15/-32 -53/-14/-32 
s 2
f -61/-10/-31 -62/-11/-31 -58/-15/-31 -59/-9/-31 
s 4
f -62/-12/-30 -63/-11/-30 -57/-15/-30 -58/-14/-30 
s 2
f -63/-12/-29 -64/-8/-29 -60/-7/-29 -57/-14/-29 
s 1
f -52/-12/-34 -51/-11/-34 -50/-11/-34 -49/-12/-34 
s 2
f -51/-11/-31 -48/-15/-31 -47/-15/-31 -50/-11/-31 
s 1
f -48/-15/-33 -46/-14/-33 -45/-14/-33 -47/-15/-33 
s 2
f -46/-14/-29 -52/-12/-29 -49/-12/-29 -45/-14/-29 
s 4
f -49/-12/-32 -50/-11/-32 -44/-11/-32 -43/-12/-32 
s 8
f -50/-11/-30 -47/-15/-30 -42/-15/-30 -44/-11/-30 
s 4
f -47/-15/-32 -45/-14/-32 -41/-14/-32 -42/-15/-32 
s 8
f -45/-14/-30 -49/-12/-30 -43/-12/-30 -41/-14/-30 
s 2
f -43/-12/-34 -44/-11/-34 -55/-11/-34 -56/-12/-34 
s 16
f -44/-11/-28 -42/-15/-28 -54/-15/-28 -55/-11/-28 
s 2
f -42/-15/-33 -41/-14/-33 -53/-14/-33 -54/-15/-33 
s 16
f -41/-14/-27 -43/-12/-27 -56/-12/-27 -53/-14/-27 
s 1
f -52/-6/-34 -64/-16/-34 -61/-13/-34 -51/-5/-34 
f -48/-6/-33 -59/-16/-33 -60/-13/-33 -46/-5/-33 
s 2
f -40/-4/-26 -39/-10/-26 -38/-9/-26 -37/-3/-26 
f -36/-2/-25 -35/-7/-25 -34/-8/-25 -33/-1/-25 
s off
f -52/-1/-24 -46/-2/-24 -32/-2/-24 -31/-1/-24 
f -46/-2/-33 -60/-7/-33 -30/-7/-33 -32/-2/-33 
f -60/-7/-23 -64/-8/-23 -29/-8/-23 -30/-7/-23 
f -64/-8/-34 -52/-1/-34 -31/-1/-34 -29/-8/-34 
f -31/-1/-22 -32/-2/-22 -28/-2/-22 -27/-1/-22 
f -32/-2/-33 -30/-7/-33 -26/-7/-33 -28/-2/-33 
f -30/-7/-21 -29/-8/-21 -25/-8/-21 -26/-7/-21 
f -29/-8/-34 -31/-1/-34 -27/-1/-34 -25/-8/-34 
f -27/-1/-20 -28/-2/-20 -24/-2/-20 -23/-1/-20 
f -28/-2/-33 -26/-7/-33 -22/-7/-33 -24/-2/-33 
f -26/-7/-19 -25/-8/-19 -21/-8/-19 -22/-7/-19 
f -25/-8/-34 -27/-1/-34 -23/-1/-34 -21/-8/-34 
f -23/-1/-18 -24/-2/-18 -20/-2/-18 -19/-1/-18 
f -24/-2/-17 -22/-7/-17 -18/-7/-17 -20/-2/-17 
f -22/-7/-18 -21/-8/-18 -17/-8/-18 -18/-7/-18 
f -21/-8/-16 -23/-1/-16 -19/-1/-16 -17/-8/-16 
f -19/-1/-15 -20/-2/-15 -36/-2/-15 -33/-1/-15 
f -20/-2/-33 -18/-7/-33 -35/-7/-33 -36/-2/-33 
f -18/-7/-14 -17/-8/-14 -34/-8/-14 -35/-7/-14 
f -17/-8/-34 -19/-1/-34 -33/-1/-34 -34/-8/-34 
f -48/-3/-13 -51/-4/-13 -16/-4/-13 -15/-3/-13 
f -51/-4/-34 -61/-10/-34 -14/-10/-34 -16/-4/-34 
f -61/-10/-12 -59/-9/-12 -13/-9/-12 -14/-10/-12 
f -59/-9/-33 -48/-3/-33 -15/-3/-33 -13/-9/-33 
f -16/-4/-11 -12/-4/-11 -11/-3/-11 -15/-3/-11 
f -16/-4/-34 -14/-10/-34 -10/-10/-34 -12/-4/-34 
f -13/-9/-10 -9/-9/-10 -10/-10/-10 -14/-10/-10 
f -15/-3/-33 -11/-3/-33 -9/-9/-33 -13/-9/-33 
f -8/-4/-9 -7/-3/-9 -6/-3/-9 -5/-4/-9 
f -4/-10/-8 -8/-4/-8 -5/-4/-8 -3/-10/-8 
f -2/-9/-8 -4/-10/-8 -3/-10/-8 -1/-9/-8 
f -7/-3/-9 -2/-9/-9 -1/-9/-9 -6/-3/-9 
f -7/-3/-7 -8/-4/-7 -40/-4/-7 -37/-3/-7 
f -8/-4/-6 -4/-10/-6 -39/-10/-6 -40/-4/-6 
f -4/-10/-5 -2/-9/-5 -38/-9/-5 -39/-10/-5 
f -2/-9/-34 -7/-3/-34 -37/-3/-34 -38/-9/-34 
f -5/-4/-4 -6/-3/-4 -11/-3/-4 -12/-4/-4 
f -3/-10/-3 -5/-4/-3 -12/-4/-3 -10/-10/-3 
f -1/-9/-2 -3/-10/-2 -10/-10/-2 -9/-9/-2 
f -11/-3/-1 -6/-3/-1 -1/-9/-1 -9/-9/-1 
# 62 polygons

