{
   "accessors" : [
      {
         "bufferView" : 0,
         "componentType" : 5123,
         "count" : 1314,
         "max" : [ 1313 ],
         "min" : [ 0 ],
         "name" : "buffer-0-accessor-indices-buffer-0-mesh-0",
         "type" : "SCALAR"
      },
      {
         "bufferView" : 2,
         "componentType" : 5126,
         "count" : 1314,
         "max" : [ 0.8258510231971741, 0.5667179822921753, 0.8244699835777283 ],
         "min" : [ -0.8261709809303284, -0.6278749704360962, -0.8403090238571167 ],
         "name" : "buffer-0-accessor-position-buffer-0-mesh-0",
         "type" : "VEC3"
      },
      {
         "bufferView" : 2,
         "byteOffset" : 15768,
         "componentType" : 5126,
         "count" : 1314,
         "max" : [ 1, 1, 0.9973000288009644 ],
         "min" : [ -1, -1, -0.9984999895095825 ],
         "name" : "buffer-0-accessor-normal-buffer-0-mesh-0",
         "type" : "VEC3"
      },
      {
         "bufferView" : 1,
         "componentType" : 5126,
         "count" : 1314,
         "max" : [ 0.9878000020980835, 0 ],
         "min" : [ 0, -0.9879000186920166 ],
         "name" : "buffer-0-accessor-texcoord-buffer-0-mesh-0",
         "type" : "VEC2"
      },
      {
         "bufferView" : 3,
         "componentType" : 5126,
         "count" : 0,
         "max" : [ 0, 0, 0, 0 ],
         "min" : [ 0, 0, 0, 0 ],
         "name" : "buffer-0-accessor-color-buffer-0-mesh-0",
         "type" : "VEC4"
      }
   ],
   "asset" : {
      "extras" : {
         "GOOGLE_processor_version" : 294144208
      },
      "generator" : "Obj2GltfConverter",
      "version" : "2.0"
   },
   "bufferViews" : [
      {
         "buffer" : 0,
         "byteLength" : 2628,
         "byteStride" : 0,
         "name" : "buffer-0-bufferview-ushort",
         "target" : 34963
      },
      {
         "buffer" : 0,
         "byteLength" : 10512,
         "byteOffset" : 2632,
         "byteStride" : 8,
         "name" : "buffer-0-bufferview-vec2",
         "target" : 34962
      },
      {
         "buffer" : 0,
         "byteLength" : 31536,
         "byteOffset" : 13152,
         "byteStride" : 12,
         "name" : "buffer-0-bufferview-vec3",
         "target" : 34962
      },
      {
         "buffer" : 0,
         "byteLength" : 1,
         "name" : "buffer-0-bufferview-vec4"
      }
   ],
   "buffers" : [
      {
         "byteLength" : 44688,
         "name" : "buffer-0",
         "uri" : "PUSHILIN_pumpkin.bin"
      }
   ],
   "cameras" : [
      {
         "perspective" : {
            "yfov" : 0.7853981633974483,
            "znear" : 0.1000000014901161
         },
         "type" : "perspective"
      }
   ],
   "extensions" : {
      "KHR_lights_punctual" : {
         "lights" : [
            {
               "color" : [ 1, 0.9333333333333333, 0.8666666666666667 ],
               "intensity" : 0.25,
               "name" : "headLight",
               "type" : "directional"
            },
            {
               "color" : [ 1, 0.9333333333333333, 0.8666666666666667 ],
               "intensity" : 0.324999988079071,
               "name" : "keyLight",
               "type" : "directional"
            }
         ]
      }
   },
   "extensionsUsed" : [ "GOOGLE_backgrounds", "GOOGLE_camera_settings", "KHR_lights_punctual" ],
   "extras" : {
      "GOOGLE_initial_camera_motion" : {
         "motionPath" : "FULL_ROTATION"
      },
      "GOOGLE_lighting_rig" : {
         "disableShadows" : false
      }
   },
   "images" : [
      {
         "mimeType" : "image/png",
         "name" : "None-image",
         "uri" : "PUSHILIN_pumpkin.png"
      }
   ],
   "materials" : [
      {
         "alphaMode" : "BLEND",
         "doubleSided" : true,
         "name" : "None",
         "pbrMetallicRoughness" : {
            "baseColorFactor" : [ 0.8, 0.8, 0.8, 1 ],
            "baseColorTexture" : {
               "index" : 0
            },
            "metallicFactor" : 0
         }
      }
   ],
   "meshes" : [
      {
         "name" : "buffer-0-mesh-0",
         "primitives" : [
            {
               "attributes" : {
                  "NORMAL" : 2,
                  "POSITION" : 1,
                  "TEXCOORD_0" : 3
               },
               "indices" : 0,
               "material" : 0
            }
         ]
      }
   ],
   "nodes" : [
      {
         "mesh" : 0,
         "name" : "node-0"
      },
      {
         "children" : [ 2 ]
      },
      {
         "children" : [ 3 ],
         "extras" : {
            "isTransformNode" : 1
         },
         "translation" : [ -0.003977573414561682, -0.08807363159831795, 0.002226761166845214 ]
      },
      {
         "children" : [ 0 ],
         "translation" : [ 0.003977573414561682, 0.08807363159831795, -0.002226761166845214 ]
      },
      {
         "camera" : 0,
         "children" : [ 5 ],
         "rotation" : [
            -0.2219240542792782,
            -0.2518950318538158,
            -0.05946428056213496,
            0.9400864887853888
         ],
         "translation" : [ -1.508330030705964, 1.416168634780489, 2.607690417489053 ]
      },
      {
         "extensions" : {
            "KHR_lights_punctual" : {
               "light" : 0
            }
         },
         "extras" : {
            "isHeadLight" : 1
         },
         "name" : "headLightNode",
         "translation" : [ -0.9654276548479661, 0.4827138274239831, 0.4827138274239831 ]
      },
      {
         "extensions" : {
            "KHR_lights_punctual" : {
               "light" : 1
            }
         },
         "extras" : {
            "isKeyLight" : 1
         },
         "name" : "keyLightNode",
         "rotation" : [ -0.7505326882858236, -0.3752663441429118, 0, 0.5439447166468927 ],
         "scale" : [ 0, 0, 0.9750819313964458 ],
         "translation" : [ -0.9751049772726995, 1.943997325666442, -0.9748351774065894 ]
      }
   ],
   "samplers" : [
      {
         "name" : "None-sampler",
         "wrapS" : 10497,
         "wrapT" : 10497
      }
   ],
   "scene" : 0,
   "scenes" : [
      {
         "extensions" : {
            "GOOGLE_backgrounds" : {
               "color" : [ 0.2980392156862745, 0.6862745098039216, 0.3137254901960784 ]
            },
            "GOOGLE_camera_settings" : {}
         },
         "extras" : {
            "GOOGLE_camera_index" : {
               "cameraIndex" : 0,
               "nodeIndex" : 4
            },
            "GOOGLE_geometry_data" : {
               "stats" : {
                  "centroid" : [ -2.304587625371097e-05, -0.006166537126449689, 0.0002467539898563556 ],
                  "radius" : 0.9654276548479661,
                  "stdev" : 0.6966235877754373
               },
               "visualCenterPoint" : [ -0.003977573414561682, -0.08807363159831795, 0.002226761166845214 ]
            },
            "GOOGLE_hemi_light" : {
               "groundColor" : [ 0.2980392156862745, 0.6862745098039216, 0.3137254901960784 ]
            }
         },
         "name" : "scene-0",
         "nodes" : [ 1, 4, 6 ]
      }
   ],
   "textures" : [
      {
         "name" : "None-texture",
         "sampler" : 0,
         "source" : 0
      }
   ]
}
